<svg width="32" height="36" viewBox="0 0 32 36" fill="none" xmlns="http://www.w3.org/2000/svg">
<g style="mix-blend-mode:darken">
<path d="M13.75 17.25H16.25V13.5H20V11H16.25V7.25H13.75V11H10V13.5H13.75V17.25ZM8.75 28.5C7.375 28.5 6.2625 29.625 6.2625 31C6.2625 32.375 7.375 33.5 8.75 33.5C10.125 33.5 11.25 32.375 11.25 31C11.25 29.625 10.125 28.5 8.75 28.5ZM21.25 28.5C19.875 28.5 18.7625 29.625 18.7625 31C18.7625 32.375 19.875 33.5 21.25 33.5C22.625 33.5 23.75 32.375 23.75 31C23.75 29.625 22.625 28.5 21.25 28.5ZM8.9625 24.4375L9 24.2875L10.125 22.25H19.4375C20.375 22.25 21.2 21.7375 21.625 20.9625L26.45 12.2L24.275 11H24.2625L22.8875 13.5L19.4375 19.75H10.6625L10.5 19.4125L7.7 13.5L6.5125 11L5.3375 8.5H1.25V11H3.75L8.25 20.4875L6.5625 23.55C6.3625 23.9 6.25 24.3125 6.25 24.75C6.25 26.125 7.375 27.25 8.75 27.25H23.75V24.75H9.275C9.1125 24.75 8.9625 24.6125 8.9625 24.4375Z" fill="black" fill-opacity="0.8"/>
</g>
<circle cx="28" cy="4" r="4" fill="#FF0000"/>
</svg>
