<svg width="8" height="8" viewBox="0 0 8 8" fill="none" xmlns="http://www.w3.org/2000/svg">
<path d="M4.56504 7.83501C4.25267 8.055 3.74538 8.055 3.43301 7.83501L0.234347 5.58237C0.0044426 5.42046 -0.0630293 5.17936 0.0619186 4.96818C0.186867 4.75699 0.476746 4.61972 0.80161 4.61972H7.19894C7.52131 4.61972 7.81369 4.75699 7.93863 4.96818C8.06358 5.17936 7.99361 5.42046 7.76621 5.58237L4.56754 7.83501H4.56504Z" fill="black"/>
<path d="M4.56504 0.164988C4.25267 -0.0549961 3.74538 -0.0549961 3.43301 0.164988L0.234347 2.41763C0.0044426 2.57954 -0.0630293 2.82064 0.0619186 3.03183C0.186867 3.24301 0.476746 3.38028 0.80161 3.38028H7.19894C7.52131 3.38028 7.81369 3.24301 7.93863 3.03183C8.06358 2.82064 7.99361 2.57954 7.76621 2.41763L4.56754 0.164988H4.56504Z" fill="black"/>
</svg>
